<svg width="64" height="64" viewBox="0 0 192 192" fill="none" xmlns="http://www.w3.org/2000/svg">
<g id="Icon">
<g id="Border" opacity="0.06">
<rect id="Shape" width="192" height="192" rx="16" fill="#1565D8"/>
</g>
<g id="Icon_Call">
<path id="Path" d="M81.2644 91.6056L97.8348 109.091C99.6312 110.987 102.885 111.258 106.51 109.471C115.734 105.647 118.804 104.714 120.556 106.563L139.604 126.663C141.855 129.039 141.254 132.997 138.736 135.653C125.663 149.449 104.413 149.449 91.3388 135.653L55.7568 98.1061C42.7484 84.3793 42.7484 62.1717 55.7568 48.4448C58.3277 45.7318 62.2759 45.0643 64.6123 47.5297L83.66 67.6295C85.311 69.3717 84.4257 72.6166 80.8212 82.2848C79.1455 86.0588 79.414 89.653 81.2644 91.6056Z" fill="#1565D8"/>
</g>
</g>
</svg>
