<svg width="19" height="19" viewBox="0 0 19 19" fill="none"
 xmlns="http://www.w3.org/2000/svg">
<path d=
"M17.8563 15.8242L14.3407 12.3086C14.1649 12.168 13.954 12.0625 13.743 12.0625H13.1805C14.1298 10.832 14.7274 9.28516 14.7274 7.5625C14.7274 3.55469 11.4227 0.25 7.41492 0.25C3.37195 0.25 0.102417 3.55469 0.102417 7.5625C0.102417 11.6055 3.37195 14.875 7.41492 14.875C9.10242 14.875 10.6493 14.3125 11.9149 13.3281V13.9258C11.9149 14.1367 11.9852 14.3477 12.161 14.5234L15.6415 18.0039C15.993 18.3555 16.5204 18.3555 16.8368 18.0039L17.8212 17.0195C18.1727 16.7031 18.1727 16.1758 17.8563 15.8242ZM7.41492 12.0625C4.91882 12.0625 2.91492 10.0586 2.91492 7.5625C2.91492 5.10156 4.91882 3.0625 7.41492 3.0625C9.87585 3.0625 11.9149 5.10156 11.9149 7.5625C11.9149 10.0586 9.87585 12.0625 7.41492 12.0625Z"
 fill="white"/>
</svg>
