<svg width="64" height="64" viewBox="0 0 192 192" fill="none" xmlns="http://www.w3.org/2000/svg">
<g id="Icon">
<g id="Border" opacity="0.06">
<rect id="Shape" width="192" height="192" rx="16" fill="#1565D8"/>
</g>
<g id="Icon_CS">
<path id="Path" fill-rule="evenodd" clip-rule="evenodd" d="M67.6006 78.5721C88.8639 81.5729 105.495 73.8227 117.077 55.4258C117.135 55.3336 117.188 55.239 117.236 55.1425C121.693 60.1579 124.401 66.7631 124.401 74.0006V84.4006C124.401 94.9115 118.637 104.361 109.703 109.283C108.538 108.475 107.124 108.001 105.599 108.001C101.623 108.001 98.3994 111.224 98.3994 115.201C98.3994 119.177 101.623 122.401 105.599 122.401C107.613 122.401 109.434 121.574 110.741 120.241C108.794 126.357 102.93 130.801 95.9994 130.801C87.485 130.801 80.5815 124.095 80.5709 115.82L82.8474 109.578C73.6007 104.745 67.6006 95.1252 67.6006 84.4006V78.5721ZM67.6569 72.198C68.5867 57.353 80.9212 45.6006 96.0006 45.6006C102.356 45.6006 108.224 47.6883 112.956 51.2153C112.811 51.3648 112.677 51.5343 112.558 51.723C102.135 68.2801 87.4025 75.0781 67.936 72.223C67.8424 72.2093 67.7493 72.201 67.6569 72.198ZM74.6424 118.961C76.2104 129.06 85.1751 136.801 95.9994 136.801C106.826 136.801 115.792 129.057 117.357 118.955L128.866 121.276C133.438 122.168 137.08 125.624 138.21 130.143L141.529 143.419C141.908 144.933 140.762 146.401 139.201 146.401H52.8006C51.2392 146.401 50.0936 144.933 50.4723 143.419L53.7868 130.16C54.9193 125.631 58.5765 122.169 63.1386 121.291L74.6424 118.961Z" fill="#1565D8"/>
<path id="Path_2" opacity="0.3" fill-rule="evenodd" clip-rule="evenodd" d="M105.6 117.6C106.925 117.6 108 116.526 108 115.2C108 113.875 106.925 112.8 105.6 112.8C104.274 112.8 103.2 113.875 103.2 115.2C103.2 116.526 104.274 117.6 105.6 117.6Z" fill="#1565D8"/>
<path id="Path_3" opacity="0.3" fill-rule="evenodd" clip-rule="evenodd" d="M128.912 69.6006H129.6C133.577 69.6006 136.8 72.8241 136.8 76.8006V86.4006C136.8 90.377 133.577 93.6006 129.6 93.6006H127.904C128.753 90.6553 129.201 87.5638 129.201 84.4006V74.0006C129.201 72.5089 129.103 71.0402 128.912 69.6006Z" fill="#1565D8"/>
<path id="Path_4" opacity="0.3" fill-rule="evenodd" clip-rule="evenodd" d="M64.098 93.6006H62.3997C58.4233 93.6006 55.1997 90.377 55.1997 86.4006V76.8006C55.1997 72.8241 58.4233 69.6006 62.3997 69.6006H63.0899C62.8993 71.0402 62.8009 72.5089 62.8009 74.0006V84.4006C62.8009 87.5638 63.2492 90.6553 64.098 93.6006Z" fill="#1565D8"/>
</g>
</g>
</svg>
