<svg width="16" height="15" viewBox="0 0 16 15" fill="none" xmlns="http://www.w3.org/2000/svg">
<path d="M14.5625 9.00781L15.8477 3.32031C15.9297 2.91016 15.6289 2.5 15.1914 2.5H4.47266L4.22656 1.29688C4.14453 0.996094 3.87109 0.75 3.57031 0.75H0.78125C0.398438 0.75 0.125 1.05078 0.125 1.40625V1.84375C0.125 2.22656 0.398438 2.5 0.78125 2.5H2.66797L4.60938 11.9062C4.14453 12.1797 3.84375 12.6719 3.84375 13.2188C3.84375 14.0664 4.52734 14.75 5.375 14.75C6.19531 14.75 6.90625 14.0664 6.90625 13.2188C6.90625 12.8086 6.71484 12.4258 6.44141 12.125H12.1562C11.8828 12.4258 11.7188 12.8086 11.7188 13.2188C11.7188 14.0664 12.4023 14.75 13.25 14.75C14.0703 14.75 14.7812 14.0664 14.7812 13.2188C14.7812 12.6172 14.4258 12.0977 13.9062 11.8516L14.043 11.1953C14.1523 10.7852 13.8242 10.375 13.4141 10.375H6.08594L5.89453 9.5H13.9062C14.207 9.5 14.4805 9.30859 14.5625 9.00781Z" fill="#1565D8"/>
</svg>
