<svg width="56" height="56" viewBox="0 0 56 56" fill="none" xmlns="http://www.w3.org/2000/svg">
<path fill-rule="evenodd" clip-rule="evenodd" d="M28 56C43.464 56 56 43.464 56 28C56 12.536 43.464 0 28 0C12.536 0 0 12.536 0 28C0 43.464 12.536 56 28 56Z" fill="#E6F0FC"/>
<path fill-rule="evenodd" clip-rule="evenodd" d="M17.5 23.625V34.125H38.5V23.625L17.5 23.625Z" fill="#52ABE2"/>
<path fill-rule="evenodd" clip-rule="evenodd" d="M16.625 34.125V23.625C16.625 23.1418 17.0168 22.75 17.5 22.75H38.5C38.9832 22.75 39.375 23.1418 39.375 23.625V34.125C39.375 34.6082 38.9832 35 38.5 35H17.5C17.0168 35 16.625 34.6082 16.625 34.125ZM37.625 24.5H18.375V33.25H37.625V24.5Z" fill="#154E84"/>
<path fill-rule="evenodd" clip-rule="evenodd" d="M24.2999 29.8757C20.9032 28.4342 18.5208 25.0682 18.5208 21.1458V17.3542C18.5208 12.119 22.7648 7.875 28 7.875C33.2352 7.875 37.4792 12.119 37.4792 17.3542V21.1458C37.4792 25.0682 35.0968 28.4342 31.7001 29.8757L33.25 34.125L39.8147 35.4487C41.1481 35.7088 42.2105 36.7171 42.54 38.035L43.75 42.875H12.25L13.4584 38.0413C13.7887 36.7201 14.8554 35.7104 16.1928 35.4532L22.75 34.125L24.2999 29.8757Z" fill="white"/>
<path fill-rule="evenodd" clip-rule="evenodd" d="M17.6458 17.3542V21.1458C17.6458 25.0558 19.8333 28.5629 23.2045 30.3251L22.0959 33.3647L16.019 34.5956C14.3557 34.9155 13.0224 36.1776 12.6095 37.8291L11.4011 42.6628C11.263 43.215 11.6807 43.75 12.2499 43.75H43.7499C44.3192 43.75 44.7369 43.215 44.5988 42.6628L43.3888 37.8228C42.977 36.1753 41.6489 34.915 39.9822 34.5899L33.9039 33.3642L32.7954 30.3251C36.1666 28.5629 38.3541 25.0558 38.3541 21.1458V17.3542C38.3541 11.6357 33.7184 7 27.9999 7C22.2815 7 17.6458 11.6357 17.6458 17.3542ZM39.6417 36.3064C40.6471 36.5026 41.444 37.2588 41.6911 38.2473L42.6293 42H13.3706L14.3072 38.2535C14.555 37.2626 15.355 36.5054 16.358 36.3124L22.9237 34.9826C23.2221 34.9221 23.4676 34.7109 23.572 34.4248L25.1218 30.1755C25.2814 29.738 25.0703 29.2521 24.6416 29.0702C21.4875 27.7316 19.3958 24.6315 19.3958 21.1458V17.3542C19.3958 12.6022 23.248 8.75 27.9999 8.75C32.7519 8.75 36.6041 12.6022 36.6041 17.3542V21.1458C36.6041 24.6315 34.5124 27.7316 31.3583 29.0702C30.9296 29.2521 30.7185 29.738 30.878 30.1755L32.4279 34.4248C32.5323 34.7111 32.7782 34.9225 33.077 34.9827L39.6417 36.3064Z" fill="#154E84"/>
<path fill-rule="evenodd" clip-rule="evenodd" d="M29.75 32.375C30.7165 32.375 31.5 31.5915 31.5 30.625C31.5 29.6585 30.7165 28.875 29.75 28.875C28.7835 28.875 28 29.6585 28 30.625C28 31.5915 28.7835 32.375 29.75 32.375Z" fill="#FFC200"/>
<path fill-rule="evenodd" clip-rule="evenodd" d="M32.375 30.625C32.375 32.0747 31.1997 33.25 29.75 33.25C28.3003 33.25 27.125 32.0747 27.125 30.625C27.125 29.1753 28.3003 28 29.75 28C31.1997 28 32.375 29.1753 32.375 30.625ZM28.875 30.625C28.875 31.1082 29.2668 31.5 29.75 31.5C30.2332 31.5 30.625 31.1082 30.625 30.625C30.625 30.1418 30.2332 29.75 29.75 29.75C29.2668 29.75 28.875 30.1418 28.875 30.625Z" fill="#154E84"/>
<path d="M21.875 34.125C21.875 37.5077 24.6173 40.25 28 40.25C31.3827 40.25 34.125 37.5077 34.125 34.125C34.125 33.6418 33.7332 33.25 33.25 33.25C32.7668 33.25 32.375 33.6418 32.375 34.125C32.375 36.5412 30.4162 38.5 28 38.5C25.5838 38.5 23.625 36.5412 23.625 34.125C23.625 33.6418 23.2332 33.25 22.75 33.25C22.2668 33.25 21.875 33.6418 21.875 34.125Z" fill="#154E84"/>
<path fill-rule="evenodd" clip-rule="evenodd" d="M38.5 16.625H40.25C41.2165 16.625 42 17.4085 42 18.375V21.875C42 22.8415 41.2165 23.625 40.25 23.625H38.5V16.625Z" fill="#FFC200"/>
<path fill-rule="evenodd" clip-rule="evenodd" d="M17.5 16.625V23.625H15.75C14.7835 23.625 14 22.8415 14 21.875V18.375C14 17.4085 14.7835 16.625 15.75 16.625H17.5Z" fill="#FFC200"/>
<path fill-rule="evenodd" clip-rule="evenodd" d="M38.5 15.75C38.0168 15.75 37.625 16.1418 37.625 16.625V23.625C37.625 24.1082 38.0168 24.5 38.5 24.5H40.25C41.6997 24.5 42.875 23.3247 42.875 21.875V18.375C42.875 16.9253 41.6997 15.75 40.25 15.75H38.5ZM39.375 22.75V17.5H40.25C40.7332 17.5 41.125 17.8918 41.125 18.375V21.875C41.125 22.3582 40.7332 22.75 40.25 22.75H39.375Z" fill="#154E84"/>
<path fill-rule="evenodd" clip-rule="evenodd" d="M18.375 23.625V16.625C18.375 16.1418 17.9832 15.75 17.5 15.75H15.75C14.3003 15.75 13.125 16.9253 13.125 18.375V21.875C13.125 23.3247 14.3003 24.5 15.75 24.5H17.5C17.9832 24.5 18.375 24.1082 18.375 23.625ZM15.75 17.5H16.625V22.75H15.75C15.2668 22.75 14.875 22.3582 14.875 21.875V18.375C14.875 17.8918 15.2668 17.5 15.75 17.5Z" fill="#154E84"/>
<path fill-rule="evenodd" clip-rule="evenodd" d="M37.4792 17.3542C35.2706 17.2173 32.4033 15.2519 31.1056 12.0366C27.2096 15.6581 23.0974 17.3895 18.5209 17.3542L18.545 16.8284C18.7747 11.8186 22.9033 7.875 27.9183 7.875C32.9571 7.875 37.1282 11.7912 37.4455 16.82L37.4792 17.3542Z" fill="#52ABE2"/>
<path fill-rule="evenodd" clip-rule="evenodd" d="M17.6468 17.3141C17.6241 17.8099 18.0178 18.2253 18.5141 18.2291C22.9807 18.2636 27.0242 16.6955 30.818 13.464C32.3203 16.1844 34.9794 18.0759 37.4251 18.2275C37.9506 18.2601 38.3856 17.8245 38.3525 17.2991L38.3188 16.7649C37.9724 11.2752 33.419 7 27.9183 7C22.4356 7 17.9221 11.3113 17.6709 16.7883L17.6468 17.3141ZM19.4474 16.4609C19.8535 12.1138 23.5078 8.75 27.9183 8.75C32.2953 8.75 35.9515 12.0032 36.5147 16.2824C34.7154 15.7076 32.8311 13.9739 31.917 11.7091C31.6874 11.1403 30.9591 10.9781 30.5099 11.3957C27.0411 14.6201 23.4295 16.2698 19.4474 16.4609Z" fill="#154E84"/>
</svg>
