<svg width="32" height="32" viewBox="0 0 32 32" fill="none" xmlns="http://www.w3.org/2000/svg">
<path fill-rule="evenodd" clip-rule="evenodd" d="M0.727295 16C0.727295 24.4349 7.56513 31.2727 16 31.2727C24.4349 31.2727 31.2727 24.4349 31.2727 16C31.2727 7.56513 24.4349 0.727295 16 0.727295C7.56513 0.727295 0.727295 7.56513 0.727295 16ZM18.1818 16C18.1818 17.205 17.205 18.1818 16 18.1818C14.795 18.1818 13.8182 17.205 13.8182 16C13.8182 14.795 14.795 13.8182 16 13.8182C17.205 13.8182 18.1818 14.795 18.1818 16Z" fill="#154E84"/>
<path fill-rule="evenodd" clip-rule="evenodd" d="M2.18188 16C2.18188 23.6316 8.3685 29.8182 16.0001 29.8182C23.6316 29.8182 29.8182 23.6316 29.8182 16C29.8182 8.36843 23.6316 2.18182 16.0001 2.18182C8.3685 2.18182 2.18188 8.36843 2.18188 16ZM18.1819 16C18.1819 17.205 17.2051 18.1818 16.0001 18.1818C14.7951 18.1818 13.8182 17.205 13.8182 16C13.8182 14.795 14.7951 13.8182 16.0001 13.8182C17.2051 13.8182 18.1819 14.795 18.1819 16Z" fill="white"/>
<path fill-rule="evenodd" clip-rule="evenodd" d="M16.0001 21.8182C12.7868 21.8182 10.1819 19.2133 10.1819 16C10.1819 12.7867 12.7868 10.1818 16.0001 10.1818C19.2134 10.1818 21.8182 12.7867 21.8182 16C21.8182 19.2133 19.2134 21.8182 16.0001 21.8182ZM16.0001 18.9091C17.6067 18.9091 18.9092 17.6067 18.9092 16C18.9092 14.3934 17.6067 13.0909 16.0001 13.0909C14.3934 13.0909 13.091 14.3934 13.091 16C13.091 17.6067 14.3934 18.9091 16.0001 18.9091Z" fill="#52ABE2"/>
<path fill-rule="evenodd" clip-rule="evenodd" d="M16 10.1818C19.2133 10.1818 21.8182 12.7867 21.8182 16C21.8182 19.2133 19.2133 21.8182 16 21.8182V18.9091C17.6066 18.9091 18.9091 17.6067 18.9091 16C18.9091 14.3934 17.6066 13.0909 16 13.0909V10.1818Z" fill="#FFC200"/>
<path fill-rule="evenodd" clip-rule="evenodd" d="M9.45459 16C9.45459 19.615 12.3851 22.5455 16 22.5455C19.615 22.5455 22.5455 19.615 22.5455 16C22.5455 12.3851 19.615 9.45459 16 9.45459C12.3851 9.45459 9.45459 12.3851 9.45459 16ZM21.091 16C21.091 18.8117 18.8117 21.091 16 21.091C13.1884 21.091 10.9091 18.8117 10.9091 16C10.9091 13.1884 13.1884 10.9091 16 10.9091C18.8117 10.9091 21.091 13.1884 21.091 16ZM16 19.6364C13.9917 19.6364 12.3637 18.0084 12.3637 16C12.3637 13.9917 13.9917 12.3637 16 12.3637C18.0084 12.3637 19.6364 13.9917 19.6364 16C19.6364 18.0084 18.0084 19.6364 16 19.6364ZM18.1819 16C18.1819 17.205 17.205 18.1819 16 18.1819C14.7951 18.1819 13.8182 17.205 13.8182 16C13.8182 14.7951 14.7951 13.8182 16 13.8182C17.205 13.8182 18.1819 14.7951 18.1819 16Z" fill="#154E84"/>
<path d="M6.54559 17.4546C7.75057 17.4546 8.72741 16.4777 8.72741 15.2728C8.72741 14.0678 7.75057 13.0909 6.54559 13.0909C5.3406 13.0909 4.36377 14.0678 4.36377 15.2728C4.36377 16.4777 5.3406 17.4546 6.54559 17.4546Z" fill="white"/>
</svg>
