<svg width="56" height="56" viewBox="0 0 56 56" fill="none" xmlns="http://www.w3.org/2000/svg">
<path fill-rule="evenodd" clip-rule="evenodd" d="M28 56C43.464 56 56 43.464 56 28C56 12.536 43.464 0 28 0C12.536 0 0 12.536 0 28C0 43.464 12.536 56 28 56Z" fill="#E6F0FC"/>
<path fill-rule="evenodd" clip-rule="evenodd" d="M33.25 32.375V19.25H40.0953C40.7308 19.25 41.3164 19.5946 41.6251 20.1501L45.2798 26.7286C45.4242 26.9886 45.5 27.2811 45.5 27.5785V37.625C45.5 38.5915 44.7165 39.375 43.75 39.375H12.25C11.2835 39.375 10.5 38.5915 10.5 37.625V32.375H33.25Z" fill="white"/>
<path fill-rule="evenodd" clip-rule="evenodd" d="M41.125 32.375C41.125 31.4085 41.9085 30.625 42.875 30.625H45.5V34.125H42.875C41.9085 34.125 41.125 33.3415 41.125 32.375Z" fill="#FFC200"/>
<path fill-rule="evenodd" clip-rule="evenodd" d="M41.125 19.25H36.75V28H45.5V27.125L41.125 19.25Z" fill="#52ABE2"/>
<path fill-rule="evenodd" clip-rule="evenodd" d="M10.5 32.375H33.25V13.125H10.5V32.375Z" fill="#FFC200"/>
<path fill-rule="evenodd" clip-rule="evenodd" d="M10.5 25.375H33.25V18.375H10.5V25.375Z" fill="white"/>
<path fill-rule="evenodd" clip-rule="evenodd" d="M9.625 13.125V32.375C9.625 32.8582 10.0168 33.25 10.5 33.25H33.25C33.7332 33.25 34.125 32.8582 34.125 32.375V13.125C34.125 12.6418 33.7332 12.25 33.25 12.25H10.5C10.0168 12.25 9.625 12.6418 9.625 13.125ZM32.375 31.5H11.375V14H32.375V31.5Z" fill="#154E84"/>
<path d="M37.625 27.125H44.625C45.1082 27.125 45.5 27.5168 45.5 28C45.5 28.4832 45.1082 28.875 44.625 28.875H36.75C36.2668 28.875 35.875 28.4832 35.875 28V19.25C35.875 18.7668 36.2668 18.375 36.75 18.375C37.2332 18.375 37.625 18.7668 37.625 19.25V27.125Z" fill="#154E84"/>
<path fill-rule="evenodd" clip-rule="evenodd" d="M32.375 19.25V31.5H10.5C10.0168 31.5 9.625 31.8918 9.625 32.375V37.625C9.625 39.0747 10.8003 40.25 12.25 40.25H43.75C45.1997 40.25 46.375 39.0747 46.375 37.625V27.5785C46.375 27.1324 46.2613 26.6936 46.0447 26.3037L42.39 19.7252C41.927 18.8918 41.0486 18.375 40.0953 18.375H33.25C32.7668 18.375 32.375 18.7668 32.375 19.25ZM34.125 32.375V20.125H40.0953C40.4131 20.125 40.7059 20.2973 40.8602 20.5751L44.5149 27.1535C44.5871 27.2835 44.625 27.4298 44.625 27.5785V37.625C44.625 38.1082 44.2332 38.5 43.75 38.5H12.25C11.7668 38.5 11.375 38.1082 11.375 37.625V33.25H33.25C33.7332 33.25 34.125 32.8582 34.125 32.375Z" fill="#154E84"/>
<path d="M17.5 43.75C19.9162 43.75 21.875 41.7912 21.875 39.375C21.875 36.9588 19.9162 35 17.5 35C15.0838 35 13.125 36.9588 13.125 39.375C13.125 41.7912 15.0838 43.75 17.5 43.75Z" fill="#154E84"/>
<path d="M17.5 42C16.0503 42 14.875 40.8247 14.875 39.375C14.875 37.9253 16.0503 36.75 17.5 36.75C18.9497 36.75 20.125 37.9253 20.125 39.375C20.125 40.8247 18.9497 42 17.5 42Z" fill="#52ABE2"/>
<path d="M38.5 43.75C40.9162 43.75 42.875 41.7912 42.875 39.375C42.875 36.9588 40.9162 35 38.5 35C36.0838 35 34.125 36.9588 34.125 39.375C34.125 41.7912 36.0838 43.75 38.5 43.75Z" fill="#154E84"/>
<path d="M38.5 42C37.0503 42 35.875 40.8247 35.875 39.375C35.875 37.9253 37.0503 36.75 38.5 36.75C39.9497 36.75 41.125 37.9253 41.125 39.375C41.125 40.8247 39.9497 42 38.5 42Z" fill="#52ABE2"/>
<path fill-rule="evenodd" clip-rule="evenodd" d="M38.5 40.25C38.9832 40.25 39.375 39.8582 39.375 39.375C39.375 38.8918 38.9832 38.5 38.5 38.5C38.0168 38.5 37.625 38.8918 37.625 39.375C37.625 39.8582 38.0168 40.25 38.5 40.25Z" fill="white"/>
<path fill-rule="evenodd" clip-rule="evenodd" d="M17.5 40.25C17.9832 40.25 18.375 39.8582 18.375 39.375C18.375 38.8918 17.9832 38.5 17.5 38.5C17.0168 38.5 16.625 38.8918 16.625 39.375C16.625 39.8582 17.0168 40.25 17.5 40.25Z" fill="white"/>
</svg>
