<svg width="29" height="32" viewBox="0 0 29 32" fill="none" xmlns="http://www.w3.org/2000/svg">
<path d="M5.81829 5.09088H23.2728C24.4778 5.09088 25.4547 6.06771 25.4547 7.2727V24.7272C25.4547 25.9322 24.4778 26.9091 23.2728 26.9091H5.81829C4.61331 26.9091 3.63647 25.9322 3.63647 24.7272V7.2727C3.63647 6.06771 4.61331 5.09088 5.81829 5.09088Z" fill="#154E84"/>
<path d="M5.81809 6.54547C5.41643 6.54547 5.09082 6.87108 5.09082 7.27274V24.7273C5.09082 25.129 5.41643 25.4546 5.81809 25.4546H23.2726C23.6743 25.4546 23.9999 25.129 23.9999 24.7273V7.27274C23.9999 6.87108 23.6743 6.54547 23.2726 6.54547H5.81809Z" fill="#52ABE2"/>
<path d="M6.54541 8.72727C6.54541 8.32561 6.87102 8 7.27268 8H21.8181C22.2198 8 22.5454 8.32561 22.5454 8.72727V23.2727C22.5454 23.6744 22.2198 24 21.8181 24H7.27268C6.87102 24 6.54541 23.6744 6.54541 23.2727V8.72727Z" fill="#154E84"/>
<path d="M8 9.45453V22.5454H21.0909V9.45453H8Z" fill="white"/>
<path fill-rule="evenodd" clip-rule="evenodd" d="M11.6364 13.8182C11.6364 13.4165 11.962 13.0909 12.3636 13.0909H16.7273C17.1289 13.0909 17.4545 13.4165 17.4545 13.8182V18.1818C17.4545 18.5835 17.1289 18.9091 16.7273 18.9091H12.3636C11.962 18.9091 11.6364 18.5835 11.6364 18.1818V13.8182Z" fill="#FFC200"/>
<path d="M15.3029 5.62411V1.49857C15.3029 1.09691 14.9773 0.771301 14.5757 0.771301C14.174 0.771301 13.8484 1.09691 13.8484 1.49857V5.62411C13.8484 6.02577 14.174 6.35138 14.5757 6.35138C14.9773 6.35138 15.3029 6.02577 15.3029 5.62411Z" fill="#154E84"/>
<path d="M21.121 5.62411V1.49857C21.121 1.09691 20.7954 0.771301 20.3938 0.771301C19.9921 0.771301 19.6665 1.09691 19.6665 1.49857V5.62411C19.6665 6.02577 19.9921 6.35138 20.3938 6.35138C20.7954 6.35138 21.121 6.02577 21.121 5.62411Z" fill="#154E84"/>
<path d="M15.2728 30.3073V26.1818C15.2728 25.7801 14.9472 25.4545 14.5455 25.4545C14.1438 25.4545 13.8182 25.7801 13.8182 26.1818V30.3073C13.8182 30.709 14.1438 31.0346 14.5455 31.0346C14.9472 31.0346 15.2728 30.709 15.2728 30.3073Z" fill="#154E84"/>
<path d="M21.0909 30.3073V26.1818C21.0909 25.7801 20.7653 25.4545 20.3636 25.4545C19.962 25.4545 19.6364 25.7801 19.6364 26.1818V30.3073C19.6364 30.709 19.962 31.0346 20.3636 31.0346C20.7653 31.0346 21.0909 30.709 21.0909 30.3073Z" fill="#154E84"/>
<path d="M9.45455 30.3073V26.1818C9.45455 25.7801 9.12893 25.4545 8.72727 25.4545C8.32561 25.4545 8 25.7801 8 26.1818V30.3073C8 30.709 8.32561 31.0346 8.72727 31.0346C9.12893 31.0346 9.45455 30.709 9.45455 30.3073Z" fill="#154E84"/>
<path d="M28.1256 15.2791C28.5272 15.2791 28.8528 15.6047 28.8528 16.0064C28.8528 16.408 28.5272 16.7337 28.1256 16.7337H25.4546C25.0529 16.7337 24.7273 16.408 24.7273 16.0064C24.7273 15.6047 25.0529 15.2791 25.4546 15.2791H28.1256Z" fill="#154E84"/>
<path d="M28.1256 9.46094C28.5272 9.46094 28.8528 9.78655 28.8528 10.1882C28.8528 10.5899 28.5272 10.9155 28.1256 10.9155H25.4546C25.0529 10.9155 24.7273 10.5899 24.7273 10.1882C24.7273 9.78655 25.0529 9.46094 25.4546 9.46094H28.1256Z" fill="#154E84"/>
<path d="M28.1256 21.0973C28.5272 21.0973 28.8528 21.4229 28.8528 21.8246C28.8528 22.2262 28.5272 22.5518 28.1256 22.5518H25.4546C25.0529 22.5518 24.7273 22.2262 24.7273 21.8246C24.7273 21.4229 25.0529 21.0973 25.4546 21.0973H28.1256Z" fill="#154E84"/>
<path d="M4.12553 15.2791C4.52719 15.2791 4.85281 15.6047 4.85281 16.0064C4.85281 16.408 4.52719 16.7337 4.12553 16.7337H0.727273C0.325611 16.7337 0 16.408 0 16.0064C0 15.6047 0.325611 15.2791 0.727273 15.2791H4.12553Z" fill="#154E84"/>
<path d="M4.12553 9.46094C4.52719 9.46094 4.85281 9.78655 4.85281 10.1882C4.85281 10.5899 4.52719 10.9155 4.12553 10.9155H0.727273C0.325611 10.9155 0 10.5899 0 10.1882C0 9.78655 0.325611 9.46094 0.727273 9.46094H4.12553Z" fill="#154E84"/>
<path d="M4.12553 21.0973C4.52719 21.0973 4.85281 21.4229 4.85281 21.8246C4.85281 22.2262 4.52719 22.5518 4.12553 22.5518H0.727273C0.325611 22.5518 0 22.2262 0 21.8246C0 21.4229 0.325611 21.0973 0.727273 21.0973H4.12553Z" fill="#154E84"/>
<path d="M9.48482 5.62411V1.49857C9.48482 1.09691 9.15921 0.771301 8.75755 0.771301C8.35588 0.771301 8.03027 1.09691 8.03027 1.49857V5.62411C8.03027 6.02577 8.35588 6.35138 8.75755 6.35138C9.15921 6.35138 9.48482 6.02577 9.48482 5.62411Z" fill="#154E84"/>
</svg>
