<svg width="56" height="56" viewBox="0 0 56 56" fill="none" xmlns="http://www.w3.org/2000/svg">
<path fill-rule="evenodd" clip-rule="evenodd" d="M28 56C43.464 56 56 43.464 56 28C56 12.536 43.464 0 28 0C12.536 0 0 12.536 0 28C0 43.464 12.536 56 28 56Z" fill="#E6F0FC"/>
<path fill-rule="evenodd" clip-rule="evenodd" d="M28.2972 9.67702C28.1051 9.60766 27.8949 9.60766 27.7028 9.67702L11.9528 15.3645C11.6061 15.4897 11.375 15.8188 11.375 16.1875V28C11.375 37.276 16.9148 43.4314 27.7732 46.3451C27.9237 46.3855 28.0823 46.3849 28.2325 46.3435C39.0873 43.3513 44.625 37.1983 44.625 28V16.1875C44.625 15.8188 44.3939 15.4897 44.0472 15.3645L28.2972 9.67702ZM13.125 16.8018L28 11.4303L42.875 16.8018V28C42.875 36.283 37.9875 41.7762 27.9969 44.5925C18.0102 41.8498 13.125 36.3584 13.125 28V16.8018Z" fill="#154E84"/>
<path fill-rule="evenodd" clip-rule="evenodd" d="M28 10.5L43.75 16.1875V28C43.75 41.1583 28 45.5 28 45.5C28 45.5 12.25 41.2737 12.25 28C12.25 28 12.25 16.1875 12.25 16.1875L28 10.5Z" fill="#52ABE2"/>
<path fill-rule="evenodd" clip-rule="evenodd" d="M28 10.5V45.5C28 45.5 12.25 41.2737 12.25 28C12.25 28 12.25 16.1875 12.25 16.1875L28 10.5Z" fill="#FFC200"/>
<path d="M27.6953 13.1798C27.8919 13.1067 28.1081 13.1067 28.3047 13.1798L40.5547 17.7298C40.8975 17.8571 41.125 18.1843 41.125 18.55V28C41.125 35.437 36.7599 40.4257 28.2387 42.8418C28.0846 42.8855 27.9216 42.8861 27.7672 42.8435C19.2422 40.4905 14.875 35.4994 14.875 28L14.875 18.55C14.875 18.1843 15.1025 17.8571 15.4453 17.7298L27.6953 13.1798Z" fill="#154E84"/>
<path d="M28 14.9333L16.625 19.1583L16.625 27.9999C16.625 34.5917 20.3479 38.9132 27.9968 41.0903C35.6499 38.8551 39.375 34.5318 39.375 27.9999V19.1583L28 14.9333Z" fill="white"/>
<path d="M24.2437 28.2563C23.902 27.9146 23.348 27.9146 23.0063 28.2563C22.6646 28.598 22.6646 29.1521 23.0063 29.4938L26.5063 32.9938C26.8784 33.3659 27.4926 33.3277 27.8157 32.9122L33.9407 25.0372C34.2374 24.6558 34.1687 24.106 33.7872 23.8094C33.4057 23.5127 32.856 23.5814 32.5593 23.9628L27.0428 31.0554L24.2437 28.2563Z" fill="#154E84"/>
<path fill-rule="evenodd" clip-rule="evenodd" d="M28.2972 9.67702C28.1051 9.60766 27.8949 9.60766 27.7028 9.67702L11.9528 15.3645C11.6061 15.4897 11.375 15.8188 11.375 16.1875V28C11.375 37.276 16.9148 43.4314 27.7732 46.3451C27.9237 46.3855 28.0823 46.3849 28.2325 46.3435C39.0873 43.3513 44.625 37.1983 44.625 28V16.1875C44.625 15.8188 44.3939 15.4897 44.0472 15.3645L28.2972 9.67702ZM13.125 16.8018L28 11.4303L42.875 16.8018V28C42.875 36.283 37.9875 41.7762 27.9969 44.5925C18.0102 41.8498 13.125 36.3584 13.125 28V16.8018Z" fill="#154E84"/>
</svg>
