<svg width="5" height="5" viewBox="0 0 56 56" fill="none" xmlns="http://www.w3.org/2000/svg">
<path fill-rule="evenodd" clip-rule="evenodd" d="M28 56C43.464 56 56 43.464 56 28C56 12.536 43.464 0 28 0C12.536 0 0 12.536 0 28C0 43.464 12.536 56 28 56Z" fill="#E6F0FC"/>
<path fill-rule="evenodd" clip-rule="evenodd" d="M16.2523 21.875H39.7461L43.1993 32.6781C44.9649 38.2018 41.9184 44.1109 36.3947 45.8765C35.3612 46.2068 34.2828 46.375 33.1978 46.375H22.8007C17.0017 46.375 12.3007 41.674 12.3007 35.875C12.3007 34.79 12.4688 33.7116 12.7992 32.6781L16.2523 21.875Z" fill="#FFC200"/>
<path fill-rule="evenodd" clip-rule="evenodd" d="M18.8773 21.875H39.7461L43.1993 32.6781C44.9649 38.2018 41.9184 44.1109 36.3947 45.8765C35.3612 46.2068 34.2828 46.375 33.1978 46.375H25.4257C19.6267 46.375 14.9257 41.674 14.9257 35.875C14.9257 34.79 15.0938 33.7116 15.4242 32.6781L18.8773 21.875Z" fill="white"/>
<path d="M16.625 15.75H39.375C41.308 15.75 42.875 17.317 42.875 19.25C42.875 21.183 41.308 22.75 39.375 22.75H16.625C14.692 22.75 13.125 21.183 13.125 19.25C13.125 17.317 14.692 15.75 16.625 15.75Z" fill="#154E84"/>
<path d="M16.625 17.5C15.6585 17.5 14.875 18.2835 14.875 19.25C14.875 20.2165 15.6585 21 16.625 21H39.375C40.3415 21 41.125 20.2165 41.125 19.25C41.125 18.2835 40.3415 17.5 39.375 17.5H16.625Z" fill="#52ABE2"/>
<path d="M35.875 16.1886C35.875 13.7724 33.9162 11.8136 31.5 11.8136C29.0838 11.8136 27.125 13.7724 27.125 16.1886L27.1256 16.6263C27.1263 17.1091 27.5179 17.5 28.0006 17.5H35C35.4832 17.5 35.875 17.1083 35.875 16.625V16.1886Z" fill="#154E84"/>
<path d="M28.9114 15.75C29.1197 14.5095 30.1994 13.5636 31.5001 13.5636C32.8004 13.5636 33.8799 14.5091 34.0886 15.75H28.9114Z" fill="#FFC200"/>
<path d="M24.5 11.8136C22.0838 11.8136 20.125 13.7724 20.125 16.1886V16.625C20.125 17.1083 20.5168 17.5 21 17.5H28.0006C28.4844 17.5 28.8763 17.1075 28.8756 16.6238L28.875 16.1879C28.8746 13.772 26.916 11.8136 24.5 11.8136Z" fill="#154E84"/>
<path d="M27.0886 15.75H21.9115C22.1202 14.5091 23.1997 13.5636 24.5 13.5636C25.8003 13.5636 26.8798 14.5091 27.0886 15.75Z" fill="#FFC200"/>
<path fill-rule="evenodd" clip-rule="evenodd" d="M16.2523 21C15.8717 21 15.5347 21.246 15.4189 21.6086L11.9657 32.4117C11.6078 33.5313 11.4257 34.6996 11.4257 35.875C11.4257 42.1572 16.5184 47.25 22.8007 47.25H33.1978C34.3732 47.25 35.5415 47.0678 36.6611 46.7099C42.6451 44.7972 45.9455 38.3957 44.0327 32.4117L40.5796 21.6086C40.4637 21.246 40.1267 21 39.7461 21H16.2523ZM13.6326 32.9445L16.8912 22.75H39.1072L42.3658 32.9445C43.9843 38.0079 41.1917 43.4246 36.1283 45.043C35.1809 45.3458 34.1924 45.5 33.1978 45.5H22.8007C17.4849 45.5 13.1757 41.1907 13.1757 35.875C13.1757 34.8804 13.3298 33.8919 13.6326 32.9445Z" fill="#154E84"/>
</svg>
