<svg width="64" height="64" viewBox="0 0 64 64" fill="none" xmlns="http://www.w3.org/2000/svg">
<g opacity="0.06">
<rect width="64" height="64" rx="16" fill="#1565D8"/>
</g>
<path fill-rule="evenodd" clip-rule="evenodd" d="M48.9335 27.7828V42.8337C48.9335 45.9265 46.4263 48.4337 43.3335 48.4337H20.9335C17.8407 48.4337 15.3335 45.9265 15.3335 42.8337V27.7828C15.3335 27.0016 15.7166 26.2701 16.359 25.823L20.4487 22.9769C20.8113 22.7245 21.3099 22.8139 21.5623 23.1766C21.8147 23.5392 21.7253 24.0378 21.3626 24.2902L17.2729 27.1363C17.0633 27.2822 16.9376 27.5181 16.9336 27.7704C17.1838 27.682 17.453 27.6339 17.7335 27.6339C18.1615 27.6339 18.5817 27.7483 18.9506 27.9654L32.1335 35.7221L45.3164 27.9654C45.9517 27.5915 46.6887 27.5435 47.3334 27.771C47.3296 27.5185 47.2039 27.2823 46.9941 27.1363L43.0215 24.3717C42.6588 24.1193 42.5694 23.6207 42.8218 23.2581C43.0742 22.8954 43.5727 22.806 43.9354 23.0584L47.908 25.823C48.5504 26.2701 48.9335 27.0016 48.9335 27.7828Z" fill="#1565D8"/>
<path fill-rule="evenodd" clip-rule="evenodd" d="M20.3335 27.3335V19.3335C20.3335 17.1244 22.1244 15.3335 24.3335 15.3335H40.3335C42.5426 15.3335 44.3335 17.1244 44.3335 19.3335V27.3335L32.3335 34.5335L20.3335 27.3335ZM27.5335 23.3335H37.1335C37.5753 23.3335 37.9335 22.9753 37.9335 22.5335C37.9335 22.0917 37.5753 21.7335 37.1335 21.7335H27.5335C27.0917 21.7335 26.7335 22.0917 26.7335 22.5335C26.7335 22.9753 27.0917 23.3335 27.5335 23.3335ZM37.9335 27.3335C37.9335 27.7753 37.5753 28.1335 37.1335 28.1335H27.5335C27.0917 28.1335 26.7335 27.7753 26.7335 27.3335C26.7335 26.8917 27.0917 26.5335 27.5335 26.5335H37.1335C37.5753 26.5335 37.9335 26.8917 37.9335 27.3335Z" fill="#B8D0F3"/>
</svg>
