<svg width="64" height="66" viewBox="0 0 64 66" fill="none" xmlns="http://www.w3.org/2000/svg">
<g id="iconspace_Tshirt B">
<path id="Shape" fill-rule="evenodd" clip-rule="evenodd" d="M20 51.4211C20 52.5257 20.8954 53.4211 22 53.4211H42C43.1046 53.4211 44 52.5257 44 51.4211V28.9692H50C51.1046 28.9692 52 28.0569 52 26.9316V18.7809C52 15.4048 49.3137 12.668 46 12.668H38C38 16.0441 35.3137 18.7809 32 18.7809C28.6863 18.7809 26 16.0441 26 12.668H18C14.6863 12.668 12 15.4048 12 18.7809V26.9316C12 28.0569 12.8954 28.9692 14 28.9692H20V51.4211Z" fill="white"/>
<rect id="Shape_2" width="8" height="4.0752" transform="matrix(-1 0 0 1 20 24.894)" fill="#52ABE2"/>
<rect id="Shape_3" width="8" height="4.0752" transform="matrix(-1 0 0 1 52 24.894)" fill="#52ABE2"/>
<path id="Shape_4" fill-rule="evenodd" clip-rule="evenodd" d="M44 49.3458H20V53.4211H44V49.3458Z" fill="#52ABE2"/>
<path id="Shape_5" fill-rule="evenodd" clip-rule="evenodd" d="M40 23.875H33V26.488C33 28.421 34.567 29.988 36.5 29.988C38.433 29.988 40 28.421 40 26.488V23.875Z" fill="#FFC200"/>
<path id="Shape_6" d="M43 24.8938V51.3834C43 51.9461 42.5523 52.4023 42 52.4023H22C21.4477 52.4023 21 51.9461 21 51.3834V24.8938C21 24.3311 20.5523 23.875 20 23.875C19.4477 23.875 19 24.3311 19 24.8938V51.3834C19 53.0715 20.3431 54.4399 22 54.4399H42C43.6569 54.4399 45 53.0715 45 51.3834V24.8938C45 24.3311 44.5523 23.875 44 23.875C43.4477 23.875 43 24.3311 43 24.8938Z" fill="#154E84"/>
<path id="Shape_7" fill-rule="evenodd" clip-rule="evenodd" d="M50 29.9881H45V51.3835C45 53.0715 43.6569 54.4399 42 54.4399H22C20.3431 54.4399 19 53.0715 19 51.3835V29.9881H14C12.3431 29.9881 11 28.6196 11 26.9316V18.781C11 14.8422 14.134 11.6492 18 11.6492H26C26.5523 11.6492 27 12.1053 27 12.668C27 15.4814 29.2386 17.7621 32 17.7621C34.7614 17.7621 37 15.4814 37 12.668C37 12.1053 37.4477 11.6492 38 11.6492H46C49.866 11.6492 53 14.8422 53 18.781V26.9316C53 28.6196 51.6569 29.9881 50 29.9881ZM38.9291 13.6869C38.4439 17.143 35.5265 19.7998 32 19.7998C28.4735 19.7998 25.5561 17.143 25.0709 13.6869H18C15.2386 13.6869 13 15.9676 13 18.781V26.9316C13 27.4942 13.4477 27.9504 14 27.9504H20C20.5523 27.9504 21 28.4065 21 28.9692V51.3833C21 51.946 21.4477 52.4021 22 52.4021H42C42.5523 52.4021 43 51.946 43 51.3833V28.9692C43 28.4065 43.4477 27.9504 44 27.9504H50C50.5523 27.9504 51 27.4942 51 26.9316V18.781C51 15.9676 48.7614 13.6869 46 13.6869H38.9291Z" fill="#154E84"/>
</g>
</svg>
