<svg width="64" height="66" viewBox="0 0 64 66" fill="none" xmlns="http://www.w3.org/2000/svg">
<path d="M47 36.1574C47 36.7201 46.5523 37.1763 46 37.1763H18C17.4477 37.1763 17 36.7201 17 36.1574V21.894C17 17.9552 20.134 14.7622 24 14.7622H40C43.866 14.7622 47 17.9552 47 21.894V36.1574Z" fill="#154E84"/>
<path d="M45 35.1388V21.894C45 19.0805 42.7614 16.7998 40 16.7998H24C21.2386 16.7998 19 19.0805 19 21.894V35.1388H45Z" fill="white"/>
<path d="M11 30.0445C11 27.2311 13.2386 24.9503 16 24.9503C18.7614 24.9503 21 27.2311 21 30.0445V46.3458C21 46.9085 20.5523 47.3646 20 47.3646H16C14.3431 47.3646 13 45.9962 13 44.3081V34.1203C11.759 33.1719 11 31.6751 11 30.0445Z" fill="#154E84"/>
<path d="M19 45.3269V30.0445C19 28.3565 17.6569 26.988 16 26.988C14.3431 26.988 13 28.3565 13 30.0445C13 31.1489 13.5789 32.1494 14.5007 32.6927C14.8097 32.8748 15 33.2109 15 33.5746V44.3081C15 44.8708 15.4477 45.3269 16 45.3269H19Z" fill="white"/>
<path d="M53 30.0445C53 27.2311 50.7614 24.9503 48 24.9503C45.2386 24.9503 43 27.2311 43 30.0445V46.3458C43 46.9085 43.4477 47.3646 44 47.3646H48C49.6569 47.3646 51 45.9962 51 44.3081V34.1203C52.241 33.1719 53 31.6751 53 30.0445Z" fill="#154E84"/>
<path d="M45 45.3269V30.0445C45 28.3565 46.3431 26.988 48 26.988C49.6569 26.988 51 28.3565 51 30.0445C51 31.1489 50.4211 32.1494 49.4993 32.6927C49.1903 32.8748 49 33.2109 49 33.5746V44.3081C49 44.8708 48.5523 45.3269 48 45.3269H45Z" fill="white"/>
<path d="M19 41.2516C19 40.6889 19.4477 40.2328 20 40.2328H44C44.5523 40.2328 45 40.6889 45 41.2516V46.3458C45 46.9085 44.5523 47.3646 44 47.3646H20C19.4477 47.3646 19 46.9085 19 46.3458V41.2516Z" fill="#154E84"/>
<path d="M21 42.2705V45.3269H43V42.2705H21Z" fill="#FFC200"/>
<path d="M15 46.3457C15 45.7831 15.4477 45.3269 16 45.3269H20C20.5523 45.3269 21 45.7831 21 46.3457V49.4023C21 50.5276 20.1046 51.4399 19 51.4399H17C15.8954 51.4399 15 50.5276 15 49.4023V46.3457Z" fill="#154E84"/>
<path d="M17 47.3646V49.4021H19V47.3646H17Z" fill="#52ABE2"/>
<path d="M43 46.3457C43 45.7831 43.4477 45.3269 44 45.3269H48C48.5523 45.3269 49 45.7831 49 46.3457V49.4023C49 50.5276 48.1046 51.4399 47 51.4399H45C43.8954 51.4399 43 50.5276 43 49.4023V46.3457Z" fill="#154E84"/>
<path d="M45 47.3646V49.4021H47V47.3646H45Z" fill="#52ABE2"/>
<path d="M19 36.1576C19 35.5949 19.4477 35.1388 20 35.1388H44C44.5523 35.1388 45 35.5949 45 36.1576V41.2517C45 41.8144 44.5523 42.2705 44 42.2705H20C19.4477 42.2705 19 41.8144 19 41.2517V36.1576Z" fill="#154E84"/>
<path d="M21 37.1763V40.2328H43V37.1763H21Z" fill="#52ABE2"/>
</svg>
