<svg width="64" height="66" viewBox="0 0 64 66" fill="none" xmlns="http://www.w3.org/2000/svg">
<path fill-rule="evenodd" clip-rule="evenodd" d="M44 14.7056V51.3835C44 52.5089 43.1046 53.4211 42 53.4211H22C20.8954 53.4211 20 52.5089 20 51.3835V14.7056C20 13.5803 20.8954 12.668 22 12.668H42C43.1046 12.668 44 13.5803 44 14.7056Z" fill="white"/>
<path fill-rule="evenodd" clip-rule="evenodd" d="M45 51.3835V14.7057C45 13.0176 43.6569 11.6492 42 11.6492H22C20.3431 11.6492 19 13.0176 19 14.7057V51.3835C19 53.0715 20.3431 54.4399 22 54.4399H42C43.6569 54.4399 45 53.0715 45 51.3835ZM42 13.6869C42.5523 13.6869 43 14.143 43 14.7057V51.3833C43 51.946 42.5523 52.4021 42 52.4021H22C21.4477 52.4021 21 51.946 21 51.3833V14.7057C21 14.143 21.4477 13.6869 22 13.6869H42Z" fill="#154E84"/>
<path d="M30 50.3646H34C34.5523 50.3646 35 49.9085 35 49.3458C35 48.7831 34.5523 48.3269 34 48.3269H30C29.4477 48.3269 29 48.7831 29 49.3458C29 49.9085 29.4477 50.3646 30 50.3646Z" fill="#FFC200"/>
<path fill-rule="evenodd" clip-rule="evenodd" d="M24 15.7245H40C40.5523 15.7245 41 16.1806 41 16.7433V45.2704C41 45.833 40.5523 46.2892 40 46.2892H24C23.4477 46.2892 23 45.833 23 45.2704V16.7433C23 16.1806 23.4477 15.7245 24 15.7245Z" fill="#52ABE2"/>
</svg>
