<svg width="11" height="11" viewBox="0 0 11 11" fill="none" xmlns="http://www.w3.org/2000/svg">
<path d="M4.68433 1.07031C4.44995 1.30469 4.47339 1.65625 4.68433 1.89062L7.52026 4.5625H0.793701C0.465576 4.5625 0.231201 4.82031 0.231201 5.125V5.875C0.231201 6.20312 0.465576 6.4375 0.793701 6.4375H7.52026L4.68433 9.13281C4.47339 9.36719 4.47339 9.71875 4.68433 9.95312L5.19995 10.4688C5.43433 10.6797 5.78589 10.6797 5.99683 10.4688L10.5671 5.89844C10.7781 5.6875 10.7781 5.33594 10.5671 5.10156L5.99683 0.554688C5.78589 0.34375 5.43433 0.34375 5.19995 0.554688L4.68433 1.07031Z" fill="#1565D8"/>
</svg>
