<svg width="40" height="40" viewBox="0 0 40 40" fill="none" xmlns="http://www.w3.org/2000/svg">
<g clip-path="url(#clip0_8_193)">
<rect opacity="0.1" width="40" height="40" rx="20" fill="#5A7184"/>
<path d="M26.3334 13.3334H14.3021C13.7709 13.3334 13.3334 13.8021 13.3334 14.3646V26.3334C13.3334 26.8959 13.7709 27.3334 14.3021 27.3334H26.3334C26.8646 27.3334 27.3334 26.8959 27.3334 26.3334V14.3646C27.3334 13.8021 26.8646 13.3334 26.3334 13.3334ZM17.5521 25.3334H15.4896V18.6771H17.5521V25.3334ZM16.5209 17.7396C15.8334 17.7396 15.3021 17.2084 15.3021 16.5521C15.3021 15.8959 15.8334 15.3334 16.5209 15.3334C17.1771 15.3334 17.7084 15.8959 17.7084 16.5521C17.7084 17.2084 17.1771 17.7396 16.5209 17.7396ZM25.3334 25.3334H23.2396V22.0834C23.2396 21.3334 23.2396 20.3334 22.1771 20.3334C21.0834 20.3334 20.9271 21.1771 20.9271 22.0521V25.3334H18.8646V18.6771H20.8334V19.5834H20.8646C21.1459 19.0521 21.8334 18.4896 22.8334 18.4896C24.9271 18.4896 25.3334 19.8959 25.3334 21.6771V25.3334Z" fill="#5A7184"/>
</g>
<defs>
<clipPath id="clip0_8_193">
<rect width="40" height="40" fill="white"/>
</clipPath>
</defs>
</svg>
