<svg width="120" height="37" viewBox="0 0 120 37" fill="none" xmlns="http://www.w3.org/2000/svg">
<g clip-path="url(#clip0_1_2226)">
<path d="M36.9231 0H0V37H36.9231V0Z" fill="#1565D8"/>
<path opacity="0.1" d="M36.9231 11.5252V37.0002H0V7.09058C1.50591 7.51232 3.03748 8.04234 4.65531 8.6022C9.65798 10.3335 15.4854 12.3501 23.9296 12.3335C28.8967 12.3238 33.4691 11.935 36.9231 11.5252Z" fill="white"/>
<path opacity="0.1" d="M36.9231 29.7332V37H0V27.0488C3.41563 25.0313 11.2832 21.3477 18.9011 24.6667C26.4137 27.9399 33.6835 29.2672 36.9231 29.7332Z" fill="white"/>
<path d="M13.8464 5.78125H8.07715V31.2188H13.8464V21.9688H21.9233V31.2188H27.6925V16.1875H13.8464V5.78125Z" fill="white"/>
<path d="M21.9229 11.5625H27.6921V5.78125H21.9229V11.5625Z" fill="white"/>
<path d="M43.7378 29.0714V9.33813H48.8015V16.9777H55.8345V9.33813H60.8981V29.0714H55.8345V21.4882H48.8015V29.0714H43.7378Z" fill="#333333"/>
<path d="M68.2755 11.1704C67.394 11.1704 66.7098 10.9637 66.2217 10.5502C65.7342 10.118 65.4907 9.51659 65.4907 8.74607C65.4907 8.0507 65.7342 7.47749 66.2217 7.02643C66.7282 6.57538 67.413 6.34985 68.2755 6.34985C69.1571 6.34985 69.8413 6.56596 70.3294 6.99822C70.8353 7.4117 71.0886 7.99427 71.0886 8.74607C71.0886 9.46022 70.8353 10.0428 70.3294 10.4939C69.8413 10.9449 69.1571 11.1704 68.2755 11.1704ZM65.9125 29.0714V14.0741H70.6669V29.0714H65.9125Z" fill="#333333"/>
<path d="M76.3225 29.0712V18.2179H73.7344V14.0739H76.3225V10.2964H81.1051V14.0739H83.89V18.2179H81.1051V29.0712H76.3225Z" fill="#333333"/>
<path d="M93.7777 29.3532C92.1087 29.3532 90.6554 29.0243 89.4173 28.3666C88.1983 27.69 87.2516 26.7691 86.576 25.6039C85.901 24.4387 85.5635 23.1138 85.5635 21.6291C85.5635 20.088 85.8917 18.7348 86.5483 17.5696C87.2042 16.3856 88.1048 15.4553 89.2489 14.7788C90.3929 14.1022 91.6962 13.7639 93.1593 13.7639C94.5658 13.7639 95.8131 14.0928 96.9006 14.7505C97.9887 15.4083 98.8321 16.3104 99.4327 17.4569C100.033 18.6033 100.323 19.9094 100.304 21.3753L100.277 22.5875H90.1771C90.4212 23.3956 90.8896 24.0347 91.5837 24.5045C92.2962 24.9743 93.206 25.2092 94.3125 25.2092C94.9316 25.2092 95.475 25.1246 95.9441 24.9555C96.4316 24.7676 96.9473 24.4575 97.4914 24.0252L99.7137 27.1826C98.7762 27.9531 97.8104 28.5075 96.8164 28.8458C95.8223 29.1841 94.8093 29.3532 93.7777 29.3532ZM93.2435 17.7105C91.5369 17.7105 90.4962 18.4811 90.1206 20.0222H95.9158V19.994C95.8783 19.3362 95.6066 18.7912 95.1 18.359C94.6125 17.9267 93.9935 17.7105 93.2435 17.7105Z" fill="#333333"/>
<path d="M103.397 29.0714V8.21045H108.18V19.1483L113.075 14.0741H119.348L112.428 20.5579L119.152 29.0714H113.553L109.333 23.4897L108.18 24.5609V29.0714H103.397Z" fill="#333333"/>
</g>
<defs>
<clipPath id="clip0_1_2226">
<rect width="120" height="37" fill="white"/>
</clipPath>
</defs>
</svg>
