<svg width="64" height="66" viewBox="0 0 64 66" fill="none" xmlns="http://www.w3.org/2000/svg">
<path fill-rule="evenodd" clip-rule="evenodd" d="M16 51.3834C19.3137 51.3834 22 49.1027 22 46.2892C22 43.4758 19.3137 41.1951 16 41.1951C12.6863 41.1951 10 43.4758 10 46.2892C10 49.1027 12.6863 51.3834 16 51.3834Z" fill="white"/>
<path fill-rule="evenodd" clip-rule="evenodd" d="M40 47.3081C43.3137 47.3081 46 45.0274 46 42.214C46 39.4006 43.3137 37.1199 40 37.1199C36.6863 37.1199 34 39.4006 34 42.214C34 45.0274 36.6863 47.3081 40 47.3081Z" fill="white"/>
<path fill-rule="evenodd" clip-rule="evenodd" d="M16 51.3834C19.3137 51.3834 22 49.1027 22 46.2892C22 43.4758 19.3137 41.1951 16 41.1951C12.6863 41.1951 10 43.4758 10 46.2892C10 49.1027 12.6863 51.3834 16 51.3834Z" fill="#52ABE2"/>
<path fill-rule="evenodd" clip-rule="evenodd" d="M40 47.3081C43.3137 47.3081 46 45.0274 46 42.214C46 39.4006 43.3137 37.1199 40 37.1199C36.6863 37.1199 34 39.4006 34 42.214C34 45.0274 36.6863 47.3081 40 47.3081Z" fill="#FFC200"/>
<path fill-rule="evenodd" clip-rule="evenodd" d="M17.5 41.3556C14.9122 41.9211 13 43.9156 13 46.2892C13 48.6629 14.9122 50.6574 17.5 51.2229C17.0206 51.3277 16.5179 51.3834 16 51.3834C12.6863 51.3834 10 49.1027 10 46.2892C10 43.4758 12.6863 41.1951 16 41.1951C16.5179 41.1951 17.0206 41.2508 17.5 41.3556Z" fill="white"/>
<path fill-rule="evenodd" clip-rule="evenodd" d="M41.5 37.2804C38.9122 37.8459 37 39.8403 37 42.214C37 44.5876 38.9122 46.5821 41.5 47.1476C41.0206 47.2524 40.5179 47.3081 40 47.3081C36.6863 47.3081 34 45.0274 34 42.214C34 39.4006 36.6863 37.1199 40 37.1199C40.5179 37.1199 41.0206 37.1756 41.5 37.2804Z" fill="white"/>
<path fill-rule="evenodd" clip-rule="evenodd" d="M23 46.2892C23 49.7105 19.8298 52.4021 16 52.4021C12.1702 52.4021 9 49.7105 9 46.2892C9 42.8678 12.1702 40.1763 16 40.1763C19.8298 40.1763 23 42.8678 23 46.2892ZM11 46.2892C11 48.4947 13.2024 50.3646 16 50.3646C18.7976 50.3646 21 48.4947 21 46.2892C21 44.0838 18.7976 42.2139 16 42.2139C13.2024 42.2139 11 44.0838 11 46.2892Z" fill="#154E84"/>
<path fill-rule="evenodd" clip-rule="evenodd" d="M47 42.214C47 45.6353 43.8298 48.3269 40 48.3269C36.1702 48.3269 33 45.6353 33 42.214C33 38.7926 36.1702 36.1011 40 36.1011C43.8298 36.1011 47 38.7926 47 42.214ZM35 42.214C35 44.4194 37.2024 46.2892 40 46.2892C42.7976 46.2892 45 44.4194 45 42.214C45 40.0086 42.7976 38.1388 40 38.1388C37.2024 38.1388 35 40.0086 35 42.214Z" fill="#154E84"/>
<path d="M23 19.5606L45 13.0596V41.9235C45 42.4861 45.4477 42.9423 46 42.9423C46.5523 42.9423 47 42.4861 47 41.9235V11.7033C47 11.0247 46.3611 10.5358 45.7214 10.7248L21.7214 17.8168C21.2941 17.9431 21 18.3419 21 18.7953V45.9988C21 46.5614 21.4477 47.0176 22 47.0176C22.5523 47.0176 23 46.5614 23 45.9988V19.5606Z" fill="#154E84"/>
<path fill-rule="evenodd" clip-rule="evenodd" d="M21 24.8939C21 25.5731 21.64 26.0621 22.28 25.8719L46.28 18.7402C46.7067 18.6134 47 18.2149 47 17.7621V11.7033C47 11.0247 46.3611 10.5358 45.7214 10.7248L21.7214 17.8168C21.2941 17.9431 21 18.3419 21 18.7953V24.8939ZM45 13.0597V16.9981L23 23.5355V19.5607L45 13.0597Z" fill="#154E84"/>
</svg>
