<svg width="64" height="65" viewBox="0 0 64 66" fill="none" xmlns="http://www.w3.org/2000/svg">
<path d="M45 41.1952V43.2328C45 48.297 40.9706 52.4023 36 52.4023C31.0294 52.4023 27 48.297 27 43.2328V37.1199H25V43.2328C25 49.4224 29.9249 54.4399 36 54.4399C42.0751 54.4399 47 49.4224 47 43.2328V41.1952H45Z" fill="#154E84"/>
<path d="M46 43.2328C49.3137 43.2328 52 40.4959 52 37.1199C52 33.7438 49.3137 31.007 46 31.007C42.6863 31.007 40 33.7438 40 37.1199C40 40.4959 42.6863 43.2328 46 43.2328Z" fill="#154E84"/>
<path d="M46 41.1951C43.7909 41.1951 42 39.3705 42 37.1198C42 34.869 43.7909 33.0444 46 33.0444C48.2091 33.0444 50 34.869 50 37.1198C50 39.3705 48.2091 41.1951 46 41.1951Z" fill="white"/>
<path fill-rule="evenodd" clip-rule="evenodd" d="M46 39.1573C47.1046 39.1573 48 38.2451 48 37.1198C48 35.9945 47.1046 35.0823 46 35.0823C44.8954 35.0823 44 35.9945 44 37.1198C44 38.2451 44.8954 39.1573 46 39.1573Z" fill="#FFC200"/>
<path d="M32.8865 16.7433H31C30.4477 16.7433 30 16.2872 30 15.7245V12.668C30 12.1053 30.4477 11.6492 31 11.6492H35.444C37.1008 11.6492 38.444 13.0176 38.444 14.7057C38.444 14.9534 38.4144 15.2002 38.3559 15.4407L33.4008 35.8173C33.0692 37.181 31.8678 38.1388 30.4888 38.1388H21.5875C20.2121 38.1388 19.0129 37.1859 18.6779 35.8268L13.6548 15.4502C13.2512 13.813 14.2267 12.1524 15.8337 11.7412C16.0726 11.6801 16.3181 11.6492 16.5644 11.6492L21 11.6492C21.5523 11.6492 22 12.1053 22 12.668V15.7245C22 16.2872 21.5523 16.7433 21 16.7433H19.1134L22.796 33.0446H29.204L32.8865 16.7433Z" fill="#154E84"/>
<path d="M20 13.6869H16.5644C16.4823 13.6869 16.4005 13.6972 16.3209 13.7176C15.7852 13.8546 15.46 14.4082 15.5946 14.9539L20.6176 35.3304C20.7293 35.7834 21.1291 36.1011 21.5875 36.1011H30.4888C30.9485 36.1011 31.349 35.7818 31.4595 35.3273L36.4146 14.9507C36.4341 14.8706 36.444 14.7883 36.444 14.7057C36.444 14.143 35.9963 13.6869 35.444 13.6869H32V14.7057H34.1428C34.7857 14.7057 35.2615 15.3148 35.1173 15.9531L30.9745 34.2919C30.87 34.7545 30.4658 35.0822 30 35.0822H22C21.5341 35.0822 21.13 34.7545 21.0255 34.2919L16.8826 15.9531C16.7385 15.3148 17.2143 14.7057 17.8572 14.7057H20V13.6869Z" fill="#52ABE2"/>
<path d="M23 37.1199C23 36.5572 23.4477 36.1011 24 36.1011H28C28.5523 36.1011 29 36.5572 29 37.1199V40.1763C29 40.7389 28.5523 41.1951 28 41.1951H24C23.4477 41.1951 23 40.7389 23 40.1763V37.1199Z" fill="#154E84"/>
<path d="M25 38.1388V39.1573H27V38.1388H25Z" fill="white"/>
</svg>
