<svg width="64" height="66" viewBox="0 0 64 66" fill="none" xmlns="http://www.w3.org/2000/svg">
<path d="M17 13.6869H47C48.6569 13.6869 50 15.0553 50 16.7433V38.1385C50 38.7012 49.5523 39.1573 49 39.1573H15C14.4477 39.1573 14 38.7012 14 38.1385V16.7433C14 15.0553 15.3431 13.6869 17 13.6869Z" fill="#154E84"/>
<path d="M48 37.1199V16.7433C48 16.1806 47.5523 15.7245 47 15.7245H17C16.4477 15.7245 16 16.1806 16 16.7433V37.1199H48Z" fill="#52ABE2"/>
<path fill-rule="evenodd" clip-rule="evenodd" d="M18 18.7622C18 18.2099 18.4477 17.7622 19 17.7622H45C45.5523 17.7622 46 18.2099 46 18.7622V34.0823C46 34.6346 45.5523 35.0823 45 35.0823H19C18.4477 35.0823 18 34.6346 18 34.0823V18.7622Z" fill="white"/>
<path d="M14.2045 37.1199H49.7956L52.4091 48.6584C52.7817 50.3032 51.775 51.9443 50.1605 52.3238C49.9393 52.3758 49.713 52.4021 49.486 52.4021H14.5142C12.8573 52.4021 11.5142 51.0337 11.5142 49.3457C11.5142 49.1143 11.5399 48.8838 11.591 48.6584L14.2045 37.1199Z" fill="#154E84"/>
<path d="M13.5398 49.1167C13.5228 49.1918 13.5142 49.2687 13.5142 49.3458C13.5142 49.9085 13.9619 50.3646 14.5142 50.3646H49.486C49.5617 50.3646 49.6371 50.3559 49.7108 50.3385C50.249 50.212 50.5846 49.665 50.4604 49.1167L48.2046 39.1573H15.7956L13.5398 49.1167Z" fill="white"/>
<path d="M25.6251 44.0246C25.729 43.5613 26.1335 43.2328 26.5999 43.2328H37.3999C37.8664 43.2328 38.2709 43.5613 38.3748 44.0246L39.9748 51.1563C40.1179 51.7941 39.6422 52.4021 38.9999 52.4021H24.9999C24.3577 52.4021 23.882 51.7941 24.0251 51.1563L25.6251 44.0246Z" fill="#154E84"/>
<path d="M26.2544 50.3646H37.7457L36.6028 45.2705H27.3973L26.2544 50.3646Z" fill="#FFC200"/>
</svg>
