<svg width="64" height="66" viewBox="0 0 64 66" fill="none" xmlns="http://www.w3.org/2000/svg">
<path d="M20.4197 20.8186L23.5559 15.2269C24.09 14.2746 25.0841 13.6869 26.1606 13.6869L37.8394 13.6869C38.9159 13.6869 39.91 14.2746 40.4441 15.2269L43.5803 20.8186H50C51.6569 20.8186 53 22.1871 53 23.8751V49.3456C53 51.0337 51.6569 52.4021 50 52.4021H14C12.3431 52.4021 11 51.0337 11 49.3456V23.8751C11 22.1871 12.3431 20.8186 14 20.8186H20.4197Z" fill="#154E84"/>
<path d="M21 22.8563H14C13.4477 22.8563 13 23.3124 13 23.8751V49.3458C13 49.9085 13.4477 50.3646 14 50.3646H50C50.5523 50.3646 51 49.9085 51 49.3458V23.8751C51 23.3124 50.5523 22.8563 50 22.8563H43C42.6411 22.8563 42.3098 22.6604 42.1318 22.3429L38.7076 16.2378C38.5296 15.9204 38.1982 15.7245 37.8394 15.7245L26.1606 15.7245C25.8018 15.7245 25.4704 15.9204 25.2924 16.2378L21.8682 22.3429C21.6902 22.6604 21.3589 22.8563 21 22.8563Z" fill="white"/>
<path fill-rule="evenodd" clip-rule="evenodd" d="M24.0001 22.8562H40.0001L37.2901 18.2547C37.1104 17.9496 36.7827 17.7622 36.4285 17.7622H27.5717C27.2175 17.7622 26.8897 17.9496 26.71 18.2547L24.0001 22.8562Z" fill="#52ABE2"/>
<path d="M32 47.3081C37.5228 47.3081 42 42.7467 42 37.1198C42 31.493 37.5228 26.9315 32 26.9315C26.4772 26.9315 22 31.493 22 37.1198C22 42.7467 26.4772 47.3081 32 47.3081Z" fill="#154E84"/>
<path d="M32 45.2705C27.5817 45.2705 24 41.6213 24 37.1199C24 32.6184 27.5817 28.9692 32 28.9692C36.4183 28.9692 40 32.6184 40 37.1199C40 41.6213 36.4183 45.2705 32 45.2705Z" fill="#52ABE2"/>
<path fill-rule="evenodd" clip-rule="evenodd" d="M32 43.2328C35.3137 43.2328 38 40.4959 38 37.1199C38 33.7438 35.3137 31.007 32 31.007C28.6863 31.007 26 33.7438 26 37.1199C26 40.4959 28.6863 43.2328 32 43.2328Z" fill="white"/>
<path fill-rule="evenodd" clip-rule="evenodd" d="M18 29.988C19.1046 29.988 20 29.0757 20 27.9504C20 26.825 19.1046 25.9127 18 25.9127C16.8954 25.9127 16 26.825 16 27.9504C16 29.0757 16.8954 29.988 18 29.988Z" fill="#FFC200"/>
</svg>
