<svg width="42" height="40" viewBox="0 0 42 40" fill="none" xmlns="http://www.w3.org/2000/svg">
<g clip-path="url(#clip0_8_187)">
<rect opacity="0.1" width="42" height="40" rx="20" fill="#5A7184"/>
<path d="M27.677 17.0834C28.302 16.6146 28.8645 16.0521 29.302 15.3959C28.7395 15.6459 28.0833 15.8334 27.427 15.8959C28.1145 15.4896 28.6145 14.8646 28.8645 14.0834C28.2395 14.4584 27.5208 14.7396 26.802 14.8959C26.177 14.2396 25.3333 13.8646 24.3958 13.8646C22.5833 13.8646 21.1145 15.3334 21.1145 17.1459C21.1145 17.3959 21.1458 17.6459 21.2083 17.8959C18.4895 17.7396 16.052 16.4271 14.427 14.4584C14.1458 14.9271 13.9895 15.4896 13.9895 16.1146C13.9895 17.2396 14.552 18.2396 15.4583 18.8334C14.927 18.8021 14.3958 18.6771 13.9583 18.4271V18.4584C13.9583 20.0521 15.0833 21.3646 16.5833 21.6771C16.3333 21.7396 16.0208 21.8021 15.7395 21.8021C15.5208 21.8021 15.3333 21.7709 15.1145 21.7396C15.5208 23.0521 16.7395 23.9896 18.177 24.0209C17.052 24.8959 15.6458 25.4271 14.1145 25.4271C13.8333 25.4271 13.5833 25.3959 13.3333 25.3646C14.7708 26.3021 16.4895 26.8334 18.3645 26.8334C24.3958 26.8334 27.677 21.8646 27.677 17.5209C27.677 17.3646 27.677 17.2396 27.677 17.0834Z" fill="#5A7184"/>
</g>
<defs>
<clipPath id="clip0_8_187">
<rect width="42" height="40" fill="white"/>
</clipPath>
</defs>
</svg>
